<svg xmlns="http://www.w3.org/2000/svg" class="logo-svg" width="158" height="64" viewBox="0 0 158 64"><path class="logo-fill" d="M30.213 17.742c-3.222 0-5.833 2.613-5.833 5.834 0 3.225 2.611 5.836 5.833 5.836s5.833-2.611 5.833-5.836c0-3.221-2.611-5.834-5.833-5.834zm0 8.671c-1.562 0-2.833-1.272-2.833-2.837 0-1.563 1.271-2.834 2.833-2.834 1.563 0 2.834 1.271 2.834 2.834 0 1.565-1.271 2.837-2.834 2.837zm19.005-24.537c-2.113 0-3.827 1.716-3.827 3.831v43.86c0 .825.671 1.498 1.499 1.498.829 0 1.5-.673 1.5-1.498v-43.86c0-.458.373-.83.829-.83.458 0 .829.372.829.83v13.224c0 .829.671 1.5 1.5 1.5s1.501-.671 1.501-1.5v-13.224c-.002-2.115-1.716-3.831-3.831-3.831zm-9.78 12.228c.599.572 1.55.547 2.12-.052.57-.601.547-1.55-.052-2.122l-10.329-9.918c-.579-.592-1.528-.604-2.12-.023l-27.604 27.005c-.592.579-.602 1.529-.022 2.122.579.592 1.528.603 2.12.021l26.52-25.944 9.367 8.911zm11.89 35.692c-.827 0-1.5.671-1.5 1.499 0 6.158-2.245 8.188-10.188 8.598v-13.522c0-5.273-4.291-9.564-9.563-9.564s-9.563 4.291-9.563 9.564v13.512c-8.194-.428-10.623-2.463-10.623-8.588v-15.318c0-.828-.673-1.499-1.501-1.499-.828 0-1.5.671-1.5 1.499v15.318c0 9.625 6.156 11.359 14.668 11.641l1.958.023v-16.588s2.937-6.565 6.562-6.565 6.563 2.94 6.563 6.565v16.588h1.296c8.764-.194 14.893-1.717 14.893-11.664-.001-.828-.673-1.499-1.502-1.499zm6.895-14.847l2.144 2.705c.191.238.32.446.32.75 0 .545-.464.914-.944.914-.448 0-.736-.209-.959-.513l-2.72-3.473h-2.479v3.008c0 .545-.433.978-.976.978-.561 0-.993-.433-.993-.978v-9.31c0-.561.433-.993.993-.993h3.999c1.409 0 2.512.416 3.232 1.12.592.609.928 1.441.928 2.418v.031c-.002 1.792-1.042 2.882-2.545 3.343zm.544-3.262c0-1.199-.864-1.855-2.32-1.855h-2.863v3.759h2.88c1.407 0 2.303-.733 2.303-1.871v-.033zm11.92-1.888h-5.537v2.912h4.817c.48 0 .879.398.879.896 0 .479-.399.863-.879.863h-4.817v3.007h5.617c.479 0 .879.401.879.882 0 .496-.399.879-.879.879h-6.592c-.56 0-.993-.432-.993-.992v-9.214c0-.561.433-.993.993-.993h6.511c.48 0 .879.401.879.881.001.496-.398.879-.878.879zm12.528 9.519c-.465 0-.783-.271-.96-.688l-.912-2.098h-5.439l-.944 2.162c-.159.399-.497.623-.913.623-.511 0-.911-.398-.911-.912 0-.144.047-.287.127-.447l4.16-9.278c.225-.497.624-.801 1.184-.801h.096c.56 0 .945.304 1.167.801l4.159 9.278c.08.144.113.287.113.416.001.528-.399.944-.927.944zm-4.593-9.056l-1.967 4.529h3.937l-1.97-4.529zm14.689 8.976h-6.047c-.561 0-.992-.432-.992-.992v-9.311c0-.545.433-.977.992-.977.543 0 .977.432.977.977v8.512h5.07c.496 0 .896.399.896.896 0 .495-.4.895-.896.895zm-23.449 14.627l2.144 2.705c.193.239.32.447.32.752 0 .545-.463.912-.944.912-.448 0-.736-.209-.959-.513l-2.723-3.472h-2.48v3.009c0 .545-.433.977-.976.977-.561 0-.993-.432-.993-.977v-9.314c0-.562.433-.992.993-.992h4.002c1.409 0 2.512.416 3.232 1.121.594.606.929 1.438.929 2.416v.032c-.001 1.791-1.041 2.879-2.545 3.344zm.543-3.265c0-1.199-.864-1.857-2.321-1.857h-2.865v3.764h2.881c1.409 0 2.305-.736 2.305-1.874v-.033zm11.92-1.889h-5.538v2.913h4.816c.481 0 .881.401.881.896 0 .479-.398.863-.881.863h-4.816v3.01h5.619c.479 0 .879.4.879.88 0 .497-.399.881-.879.881h-6.595c-.56 0-.993-.433-.993-.992v-9.221c0-.561.433-.99.993-.99h6.514c.479 0 .881.398.881.879 0 .496-.399.881-.881.881zm7.552 2.945c2.368.576 3.584 1.426 3.584 3.281v.032c0 2.097-1.648 3.345-4 3.345-1.521 0-2.962-.479-4.21-1.408-.226-.16-.384-.433-.384-.752 0-.514.415-.912.927-.912.272 0 .448.08.577.176.928.736 1.921 1.152 3.137 1.152 1.217 0 1.985-.578 1.985-1.41v-.03c0-.802-.449-1.233-2.529-1.713-2.385-.577-3.729-1.281-3.729-3.347v-.031c0-1.922 1.601-3.25 3.826-3.25 1.408 0 2.545.369 3.555 1.041.223.129.431.4.431.785 0 .512-.416.912-.928.912-.192 0-.353-.05-.513-.146-.864-.56-1.696-.849-2.576-.849-1.152 0-1.825.593-1.825 1.328v.031c-.002.87.51 1.254 2.672 1.765zm7.006 6.578c-.561 0-.992-.432-.992-.977v-9.411c0-.545.433-.976.992-.976.545 0 .977.431.977.976v9.411c-.003.546-.432.977-.977.977zm8.144-.078h-3.186c-.561 0-.992-.434-.992-.994v-9.219c0-.562.433-.992.992-.992h3.186c3.521 0 5.953 2.418 5.953 5.57v.032c0 3.154-2.43 5.603-5.953 5.603zm3.89-5.602c0-2.194-1.536-3.812-3.89-3.812h-2.209v7.619h2.209c2.354 0 3.89-1.584 3.89-3.776v-.031zm11.952-3.843h-5.538v2.913h4.817c.48 0 .879.401.879.896 0 .479-.397.863-.879.863h-4.817v3.01h5.619c.479 0 .879.4.879.88 0 .497-.399.881-.879.881h-6.597c-.56 0-.992-.433-.992-.992v-9.221c0-.561.434-.99.992-.99h6.516c.479 0 .881.398.881.879 0 .496-.4.881-.881.881zm12.018 9.508h-.082c-.463 0-.75-.238-1.022-.592l-5.763-7.459v7.105c0 .528-.432.961-.959.961-.547 0-.979-.433-.979-.961v-9.396c0-.544.433-.993.993-.993h.208c.479 0 .753.24 1.024.577l5.603 7.251v-6.882c0-.528.433-.959.961-.959.544 0 .978.431.978.959v9.412c-.001.543-.417.977-.962.977zm12.367-8.451c-.271 0-.465-.096-.593-.191-.769-.625-1.601-1.01-2.673-1.01-2.129 0-3.697 1.762-3.697 3.955v.032c0 2.19 1.552 3.968 3.697 3.968 1.184 0 1.982-.384 2.801-1.07.145-.129.354-.226.592-.226.497 0 .93.416.93.912 0 .306-.145.545-.319.704-1.058.93-2.259 1.505-4.066 1.505-3.266 0-5.696-2.545-5.696-5.762v-.031c0-3.187 2.385-5.795 5.777-5.795 1.729 0 2.864.511 3.842 1.265.207.159.383.434.383.784-.003.544-.435.96-.978.96zm10.783-1.057h-5.539v2.913h4.818c.479 0 .881.401.881.896 0 .479-.4.863-.881.863h-4.818v3.01h5.619c.479 0 .881.4.881.88 0 .497-.4.881-.881.881h-6.596c-.561 0-.992-.433-.992-.992v-9.221c0-.561.433-.99.992-.99h6.516c.479 0 .88.398.88.879 0 .496-.399.881-.88.881z"/></svg>